# This file uses centimeters as units for non-parametric coordinates.

mtllib lowPolySphere.mtl
g default
v 0.250000 -0.866025 -0.433013
v -0.250000 -0.866025 -0.433013
v -0.500000 -0.866025 -0.000000
v -0.250000 -0.866025 0.433013
v 0.250000 -0.866025 0.433013
v 0.500000 -0.866025 0.000000
v 0.433013 -0.500000 -0.750000
v -0.433013 -0.500000 -0.750000
v -0.866025 -0.500000 -0.000000
v -0.433013 -0.500000 0.750000
v 0.433013 -0.500000 0.750000
v 0.866025 -0.500000 0.000000
v 0.500000 0.000000 -0.866025
v -0.500000 0.000000 -0.866026
v -1.000000 0.000000 -0.000000
v -0.500000 0.000000 0.866025
v 0.500000 0.000000 0.866025
v 1.000000 0.000000 0.000000
v 0.433013 0.500000 -0.750000
v -0.433013 0.500000 -0.750000
v -0.866025 0.500000 -0.000000
v -0.433013 0.500000 0.750000
v 0.433013 0.500000 0.750000
v 0.866025 0.500000 0.000000
v 0.250000 0.866025 -0.433013
v -0.250000 0.866025 -0.433013
v -0.500000 0.866025 -0.000000
v -0.250000 0.866025 0.433013
v 0.250000 0.866025 0.433013
v 0.500000 0.866025 0.000000
v 0.000000 -1.000000 0.000000
v 0.000000 1.000000 0.000000
vt 0.000000 0.166667
vt 0.166667 0.166667
vt 0.333333 0.166667
vt 0.500000 0.166667
vt 0.666667 0.166667
vt 0.833333 0.166667
vt 1.000000 0.166667
vt 0.000000 0.333333
vt 0.166667 0.333333
vt 0.333333 0.333333
vt 0.500000 0.333333
vt 0.666667 0.333333
vt 0.833333 0.333333
vt 1.000000 0.333333
vt 0.000000 0.500000
vt 0.166667 0.500000
vt 0.333333 0.500000
vt 0.500000 0.500000
vt 0.666667 0.500000
vt 0.833333 0.500000
vt 1.000000 0.500000
vt 0.000000 0.666667
vt 0.166667 0.666667
vt 0.333333 0.666667
vt 0.500000 0.666667
vt 0.666667 0.666667
vt 0.833333 0.666667
vt 1.000000 0.666667
vt 0.000000 0.833333
vt 0.166667 0.833333
vt 0.333333 0.833333
vt 0.500000 0.833333
vt 0.666667 0.833333
vt 0.833333 0.833333
vt 1.000000 0.833333
vt 0.083333 0.000000
vt 0.250000 0.000000
vt 0.416667 0.000000
vt 0.583333 0.000000
vt 0.750000 0.000000
vt 0.916667 0.000000
vt 0.083333 1.000000
vt 0.250000 1.000000
vt 0.416667 1.000000
vt 0.583333 1.000000
vt 0.750000 1.000000
vt 0.916667 1.000000
vn 0.321962 -0.765089 -0.557655
vn -0.321962 -0.765089 -0.557655
vn -0.452519 -0.425332 -0.783785
vn 0.452519 -0.425332 -0.783785
vn -0.643924 -0.765089 -0.000000
vn -0.905037 -0.425332 -0.000000
vn -0.321962 -0.765089 0.557655
vn -0.452519 -0.425332 0.783785
vn 0.321962 -0.765089 0.557655
vn 0.452519 -0.425332 0.783785
vn 0.643924 -0.765089 0.000000
vn 0.905037 -0.425332 0.000000
vn -0.500000 -0.000000 -0.866026
vn 0.500000 0.000000 -0.866025
vn -1.000000 -0.000000 -0.000000
vn -0.500000 -0.000000 0.866025
vn 0.500000 0.000000 0.866025
vn 1.000000 0.000000 0.000000
vn -0.452519 0.425332 -0.783786
vn 0.452519 0.425332 -0.783785
vn -0.905037 0.425332 -0.000000
vn -0.452519 0.425332 0.783785
vn 0.452519 0.425332 0.783785
vn 0.905037 0.425332 0.000000
vn -0.321962 0.765089 -0.557655
vn 0.321962 0.765089 -0.557655
vn -0.643924 0.765089 -0.000000
vn -0.321962 0.765089 0.557655
vn 0.321962 0.765089 0.557655
vn 0.643924 0.765089 0.000000
vn -0.000000 -1.000000 -0.000000
vn -0.000000 1.000000 -0.000000
s 1
g pSphere1
usemtl initialShadingGroup
f 1/1/1 2/2/2 8/9/3 7/8/4
f 2/2/2 3/3/5 9/10/6 8/9/3
f 3/3/5 4/4/7 10/11/8 9/10/6
f 4/4/7 5/5/9 11/12/10 10/11/8
f 5/5/9 6/6/11 12/13/12 11/12/10
f 6/6/11 1/7/1 7/14/4 12/13/12
f 7/8/4 8/9/3 14/16/13 13/15/14
f 8/9/3 9/10/6 15/17/15 14/16/13
f 9/10/6 10/11/8 16/18/16 15/17/15
f 10/11/8 11/12/10 17/19/17 16/18/16
f 11/12/10 12/13/12 18/20/18 17/19/17
f 12/13/12 7/14/4 13/21/14 18/20/18
f 13/15/14 14/16/13 20/23/19 19/22/20
f 14/16/13 15/17/15 21/24/21 20/23/19
f 15/17/15 16/18/16 22/25/22 21/24/21
f 16/18/16 17/19/17 23/26/23 22/25/22
f 17/19/17 18/20/18 24/27/24 23/26/23
f 18/20/18 13/21/14 19/28/20 24/27/24
f 19/22/20 20/23/19 26/30/25 25/29/26
f 20/23/19 21/24/21 27/31/27 26/30/25
f 21/24/21 22/25/22 28/32/28 27/31/27
f 22/25/22 23/26/23 29/33/29 28/32/28
f 23/26/23 24/27/24 30/34/30 29/33/29
f 24/27/24 19/28/20 25/35/26 30/34/30
f 2/2/2 1/1/1 31/36/31
f 3/3/5 2/2/2 31/37/31
f 4/4/7 3/3/5 31/38/31
f 5/5/9 4/4/7 31/39/31
f 6/6/11 5/5/9 31/40/31
f 1/7/1 6/6/11 31/41/31
f 25/29/26 26/30/25 32/42/32
f 26/30/25 27/31/27 32/43/32
f 27/31/27 28/32/28 32/44/32
f 28/32/28 29/33/29 32/45/32
f 29/33/29 30/34/30 32/46/32
f 30/34/30 25/35/26 32/47/32
